<?xml version="1.0" encoding="utf-8"?>
<svg xmlns="http://www.w3.org/2000/svg" height="512pt" version="1.1" viewBox="0 0 512 512" width="512pt">
<path d="M 0.00 0.00 L 512.00 0.00 L 512.00 512.00 L 0.00 512.00 L 0.00 0.00 Z" fill="transparent" opacity="1.00" stroke="transparent" stroke-width="0.25"/>
<path d="M 223.11 159.19 C 229.85 156.76 237.08 156.04 244.19 156.75 C 246.11 157.26 248.08 157.53 250.05 157.80 C 251.33 158.26 252.62 158.71 253.90 159.15 C 256.44 160.13 258.84 161.40 261.22 162.71 C 265.80 165.73 270.01 169.38 273.32 173.78 C 275.11 176.39 276.60 179.18 278.21 181.90 C 278.74 183.31 279.28 184.71 279.86 186.10 C 280.06 186.85 280.46 188.36 280.66 189.12 C 280.70 190.59 280.76 192.07 280.83 193.55 C 277.98 186.82 275.54 179.77 270.98 173.95 C 262.12 163.01 247.47 157.06 233.49 158.64 C 212.87 161.19 195.62 180.15 195.38 201.00 C 195.47 209.01 194.92 217.08 195.90 225.06 C 199.59 221.04 202.38 216.17 206.79 212.84 C 212.73 208.18 219.43 204.01 227.01 202.84 C 229.77 202.21 232.30 203.81 234.97 204.17 C 250.63 202.85 266.40 203.93 282.11 203.52 C 282.86 213.30 282.29 223.12 282.51 232.92 C 282.23 240.06 283.59 247.64 280.56 254.37 C 275.84 261.50 268.50 266.43 260.81 269.90 C 254.98 272.54 248.37 271.85 242.17 271.51 C 234.56 269.77 227.40 265.66 222.23 259.77 C 214.17 250.64 211.37 237.05 215.48 225.55 C 217.83 218.90 222.76 213.52 228.11 209.11 C 229.37 208.14 230.33 206.83 230.49 205.22 C 230.54 205.03 230.64 204.64 230.69 204.44 C 227.73 204.45 224.86 205.14 222.09 206.13 C 220.44 206.79 218.80 207.45 217.15 208.12 C 212.18 210.94 207.36 214.26 203.67 218.67 C 200.32 222.63 197.39 226.96 195.79 231.94 C 195.44 232.91 195.08 233.88 194.72 234.86 C 194.47 236.64 194.27 238.43 193.93 240.20 C 193.34 227.49 193.77 214.74 193.59 202.01 C 193.35 196.14 194.64 190.30 196.77 184.85 C 201.62 173.24 211.43 163.80 223.11 159.19 Z" fill="#c90801" opacity="1.00" stroke="#c90801" stroke-width="0.25"/>
<path d="M 233.49 158.64 C 247.47 157.06 262.12 163.01 270.98 173.95 C 275.54 179.77 277.98 186.82 280.83 193.55 C 280.76 192.07 280.70 190.59 280.66 189.12 L 281.03 188.21 C 281.33 190.21 281.51 192.22 281.77 194.23 C 282.66 197.24 282.39 200.42 282.63 203.52 C 282.50 203.52 282.24 203.52 282.11 203.52 C 266.40 203.93 250.63 202.85 234.97 204.17 C 232.30 203.81 229.77 202.21 227.01 202.84 C 219.43 204.01 212.73 208.18 206.79 212.84 C 202.38 216.17 199.59 221.04 195.90 225.06 C 194.92 217.08 195.47 209.01 195.38 201.00 C 195.62 180.15 212.87 161.19 233.49 158.64 Z" fill="#f90601" opacity="1.00" stroke="#f90601" stroke-width="0.25"/>
<path d="M 282.63 203.52 C 288.08 203.65 293.78 202.88 298.97 205.02 C 314.36 210.38 326.50 224.34 329.29 240.45 C 330.29 249.06 329.60 258.03 325.90 265.98 C 320.77 276.31 311.89 284.91 300.94 288.81 C 293.60 291.42 285.72 291.51 278.03 291.34 C 267.03 291.14 256.01 291.75 245.04 291.04 C 253.32 290.65 261.04 286.58 267.21 281.23 C 271.57 277.10 275.42 272.42 278.18 267.07 C 279.46 263.92 281.68 260.98 281.73 257.46 L 282.47 257.24 L 282.20 256.09 C 280.05 257.98 278.23 260.19 276.21 262.22 C 272.76 265.22 269.05 267.94 264.92 269.94 C 255.31 274.69 243.63 275.01 233.87 270.53 C 225.54 267.00 218.96 260.03 215.15 251.91 C 211.87 244.73 211.75 236.59 212.77 228.89 C 213.22 227.58 213.57 226.24 213.94 224.91 C 214.14 224.37 214.55 223.28 214.75 222.73 C 217.93 215.41 223.55 209.15 230.49 205.22 C 230.33 206.83 229.37 208.14 228.11 209.11 C 222.76 213.52 217.83 218.90 215.48 225.55 C 211.37 237.05 214.17 250.64 222.23 259.77 C 227.40 265.66 234.56 269.77 242.17 271.51 C 248.37 271.85 254.98 272.54 260.81 269.90 C 268.50 266.43 275.84 261.50 280.56 254.37 C 283.59 247.64 282.23 240.06 282.51 232.92 C 282.29 223.12 282.86 213.30 282.11 203.52 C 282.24 203.52 282.50 203.52 282.63 203.52 Z" fill="#7e0603" opacity="1.00" stroke="#7e0603" stroke-width="0.25"/>
<path d="M 130.15 304.24 C 130.57 304.26 131.42 304.29 131.84 304.31 C 132.45 307.47 132.02 310.74 132.41 313.94 C 136.80 311.11 139.14 305.75 144.14 303.82 C 143.08 307.38 139.31 309.01 137.45 312.08 C 137.80 316.50 143.69 319.12 143.46 323.84 C 139.89 321.43 138.44 317.08 135.32 314.19 C 134.60 314.62 133.15 315.49 132.43 315.92 C 132.08 318.16 132.13 320.44 132.21 322.71 C 131.63 322.65 130.47 322.52 129.89 322.46 C 129.99 316.39 129.40 310.26 130.15 304.24 Z" fill="#7e0603" opacity="1.00" stroke="#7e0603" stroke-width="0.25"/>
<path d="M 147.48 304.27 C 147.99 304.31 149.01 304.39 149.52 304.43 C 149.59 310.04 149.23 315.66 149.64 321.26 C 153.17 321.30 156.94 320.09 160.26 321.77 C 156.39 323.80 151.74 322.25 147.55 322.67 C 147.30 316.54 147.44 310.40 147.48 304.27 Z" fill="#7e0603" opacity="1.00" stroke="#7e0603" stroke-width="0.25"/>
<path d="M 162.58 303.72 C 163.54 304.51 164.47 305.52 164.15 306.91 C 164.16 312.09 164.08 317.27 164.23 322.45 C 163.72 322.53 162.69 322.70 162.18 322.79 C 162.60 316.44 161.20 309.96 162.58 303.72 Z" fill="#7e0603" opacity="1.00" stroke="#7e0603" stroke-width="0.25"/>
<path d="M 181.60 304.57 C 181.99 304.39 182.77 304.04 183.16 303.87 C 183.70 310.07 183.20 316.30 183.45 322.52 C 182.61 322.51 181.77 322.51 180.94 322.50 C 178.22 317.69 175.02 313.16 171.59 308.83 C 171.34 313.41 171.42 318.00 171.47 322.58 C 170.93 322.60 169.87 322.64 169.33 322.67 C 169.51 316.50 169.22 310.32 169.70 304.16 C 175.09 307.77 177.07 314.52 181.46 319.15 C 181.82 314.29 181.21 309.42 181.60 304.57 Z" fill="#7e0603" opacity="1.00" stroke="#7e0603" stroke-width="0.25"/>
<path d="M 188.60 304.37 C 189.07 304.37 190.02 304.38 190.49 304.38 C 190.94 310.48 190.71 316.59 190.71 322.70 C 190.20 322.66 189.17 322.59 188.65 322.55 C 188.65 316.49 188.67 310.43 188.60 304.37 Z" fill="#7e0603" opacity="1.00" stroke="#7e0603" stroke-width="0.25"/>
<path d="M 195.75 304.73 C 196.22 304.59 197.17 304.31 197.65 304.18 C 197.75 307.22 197.95 310.26 198.57 313.25 C 198.00 316.38 197.64 319.53 197.81 322.72 L 195.78 322.44 C 195.76 316.54 195.79 310.63 195.75 304.73 Z" fill="#7e0603" opacity="1.00" stroke="#7e0603" stroke-width="0.25"/>
<path d="M 202.48 308.55 C 204.33 306.75 205.91 303.48 209.02 304.33 C 206.75 306.91 203.81 308.98 202.19 312.07 C 203.59 316.26 207.23 319.67 210.82 322.19 C 210.13 322.40 208.77 322.81 208.09 323.01 C 204.71 320.41 203.10 315.76 199.11 314.06 C 198.97 311.66 201.20 310.28 202.48 308.55 Z" fill="#7e0603" opacity="1.00" stroke="#7e0603" stroke-width="0.25"/>
<path d="M 221.89 304.33 C 225.56 304.50 229.27 304.07 232.93 304.54 C 235.00 305.00 235.60 307.25 236.36 308.94 C 235.83 311.54 234.76 314.07 232.06 315.04 C 233.36 317.68 235.50 319.98 235.89 323.01 C 232.20 322.28 232.08 317.67 229.72 315.40 C 227.89 314.39 225.71 314.89 223.73 314.74 C 223.51 317.38 223.48 320.03 223.52 322.68 C 223.08 322.63 222.19 322.51 221.75 322.46 C 221.81 316.42 221.43 310.36 221.89 304.33 Z" fill="#7e0603" opacity="1.00" stroke="#7e0603" stroke-width="0.25"/>
<path d="M 245.73 304.33 C 246.50 304.45 247.28 304.59 248.06 304.72 C 250.21 310.81 253.18 316.61 254.97 322.81 C 254.43 322.72 253.35 322.54 252.81 322.45 C 252.13 320.78 251.72 318.93 250.58 317.51 C 247.98 316.96 245.28 317.40 242.65 317.43 C 242.09 319.05 241.56 320.68 241.14 322.34 C 240.61 322.42 239.55 322.58 239.02 322.66 C 240.59 316.35 243.19 310.31 245.73 304.33 Z" fill="#7e0603" opacity="1.00" stroke="#7e0603" stroke-width="0.25"/>
<path d="M 256.07 304.06 C 256.57 304.27 257.58 304.68 258.08 304.88 C 259.40 309.98 260.78 315.06 262.24 320.11 C 264.34 314.83 265.25 309.14 267.79 304.03 C 272.34 307.49 270.34 314.87 274.06 318.93 C 275.28 314.12 276.59 309.33 277.78 304.51 C 278.27 304.45 279.25 304.34 279.75 304.28 C 278.92 310.43 276.46 316.22 275.04 322.24 C 274.22 322.44 273.40 322.64 272.58 322.84 C 271.06 317.71 269.84 312.50 268.18 307.42 C 266.60 312.48 265.10 317.57 263.44 322.61 C 262.95 322.62 261.96 322.63 261.46 322.64 C 259.06 316.67 256.92 310.45 256.07 304.06 Z" fill="#7e0603" opacity="1.00" stroke="#7e0603" stroke-width="0.25"/>
<path d="M 287.47 304.30 C 288.34 304.38 289.22 304.48 290.09 304.57 C 292.57 310.60 295.08 316.66 296.84 322.93 C 293.78 323.04 294.14 319.39 292.78 317.51 C 289.98 317.23 287.15 317.19 284.36 317.42 C 283.44 319.02 282.85 320.77 282.21 322.50 C 281.66 322.55 280.56 322.64 280.00 322.68 C 282.69 316.63 284.89 310.39 287.47 304.30 Z" fill="#7e0603" opacity="1.00" stroke="#7e0603" stroke-width="0.25"/>
<path d="M 298.24 304.16 C 303.12 304.41 308.01 304.40 312.89 304.21 C 312.82 304.72 312.68 305.74 312.61 306.24 C 310.58 306.22 308.55 306.25 306.53 306.30 C 306.40 311.75 306.54 317.21 306.46 322.66 C 305.95 322.67 304.93 322.69 304.42 322.70 C 304.36 317.24 304.40 311.79 304.31 306.33 C 302.33 306.29 300.36 306.28 298.39 306.29 C 298.35 305.75 298.27 304.69 298.24 304.16 Z" fill="#7e0603" opacity="1.00" stroke="#7e0603" stroke-width="0.25"/>
<path d="M 324.71 304.67 C 325.23 304.55 326.27 304.32 326.79 304.21 C 327.64 308.10 327.03 312.11 327.17 316.06 C 327.08 318.33 327.47 320.73 326.53 322.88 C 324.93 323.31 324.89 321.10 324.82 320.08 C 324.73 314.94 324.84 309.80 324.71 304.67 Z" fill="#7e0603" opacity="1.00" stroke="#7e0603" stroke-width="0.25"/>
<path d="M 344.35 304.20 C 344.83 304.33 345.80 304.58 346.29 304.71 C 346.23 310.59 346.18 316.46 346.21 322.34 C 345.75 322.42 344.83 322.58 344.37 322.66 C 340.80 318.25 338.18 313.18 334.72 308.69 C 334.03 313.30 334.42 317.97 334.31 322.61 C 333.82 322.63 332.84 322.68 332.34 322.70 C 332.45 316.41 331.88 310.08 332.64 303.84 C 337.18 308.33 340.19 314.08 344.09 319.10 C 344.31 314.13 343.88 309.15 344.35 304.20 Z" fill="#7e0603" opacity="1.00" stroke="#7e0603" stroke-width="0.25"/>
<path d="M 355.99 304.84 C 356.72 304.58 357.46 304.39 358.23 304.27 C 359.87 307.80 361.01 311.54 362.54 315.12 C 363.59 317.70 364.91 320.30 364.80 323.17 C 362.32 322.37 362.08 319.56 361.20 317.51 C 358.35 317.39 355.50 317.36 352.66 317.38 C 351.75 319.57 350.93 321.86 349.41 323.72 C 348.78 320.49 350.69 317.70 351.82 314.84 C 353.27 311.53 354.36 308.07 355.99 304.84 Z" fill="#7e0603" opacity="1.00" stroke="#7e0603" stroke-width="0.25"/>
<path d="M 367.67 304.46 C 371.95 304.68 376.49 303.59 380.52 305.45 C 382.15 308.25 382.09 312.15 379.25 314.16 C 376.45 315.46 373.27 315.14 370.28 315.30 C 370.19 318.22 370.55 321.34 368.94 323.95 C 367.57 317.59 368.23 310.94 367.67 304.46 Z" fill="#7e0603" opacity="1.00" stroke="#7e0603" stroke-width="0.25"/>
<path d="M 223.57 306.33 C 226.85 306.19 230.17 306.05 233.42 306.64 C 234.15 309.01 234.11 311.70 231.93 313.31 C 229.21 313.39 226.50 313.44 223.78 313.38 C 223.66 311.03 223.58 308.68 223.57 306.33 Z" fill="#ffffff" opacity="1.00" stroke="#ffffff" stroke-width="0.25"/>
<path d="M 369.64 306.42 C 372.89 306.20 376.20 306.00 379.38 306.86 C 379.61 308.93 380.13 311.76 377.77 312.85 C 375.42 313.67 372.83 313.18 370.39 313.35 C 369.97 311.06 369.73 308.74 369.64 306.42 Z" fill="#ffffff" opacity="1.00" stroke="#ffffff" stroke-width="0.25"/>
<path d="M 288.14 307.25 C 288.44 307.24 289.02 307.22 289.31 307.21 C 290.56 309.82 291.40 312.62 292.03 315.44 C 289.75 315.45 287.48 315.43 285.21 315.41 C 286.15 312.68 286.95 309.88 288.14 307.25 Z" fill="#ffffff" opacity="1.00" stroke="#ffffff" stroke-width="0.25"/>
<path d="M 243.98 315.41 C 244.29 312.38 244.83 309.06 247.09 306.83 C 248.04 309.69 249.01 312.54 249.91 315.41 C 247.93 315.42 245.95 315.42 243.98 315.41 Z" fill="#ffffff" opacity="1.00" stroke="#ffffff" stroke-width="0.25"/>
<path d="M 356.99 306.76 C 358.71 309.42 359.31 312.63 360.57 315.52 C 358.34 315.51 356.12 315.47 353.90 315.39 C 354.62 312.41 355.71 309.54 356.99 306.76 Z" fill="#ffffff" opacity="1.00" stroke="#ffffff" stroke-width="0.25"/>
<path d="M 272.66 330.85 C 273.88 330.84 275.10 330.84 276.33 330.84 C 276.45 334.03 276.38 337.22 276.38 340.42 C 280.15 340.41 283.92 340.41 287.69 340.41 C 287.71 337.43 287.71 334.45 287.74 331.48 C 289.05 331.41 290.38 331.35 291.70 331.29 C 292.52 333.46 291.81 335.79 291.81 338.03 C 291.72 343.39 291.67 348.76 292.17 354.10 C 291.54 356.14 289.17 355.08 287.64 355.36 C 287.46 351.70 287.56 348.04 287.60 344.38 C 283.96 344.28 280.32 344.35 276.69 344.22 C 276.57 347.90 276.63 351.59 276.50 355.28 C 275.17 355.27 273.85 355.26 272.53 355.27 C 272.45 347.13 271.97 338.95 272.66 330.85 Z" fill="#7e0603" opacity="1.00" stroke="#7e0603" stroke-width="0.25"/>
<path d="M 342.75 330.67 C 346.73 330.29 351.18 330.90 354.00 334.04 C 357.92 338.00 357.71 344.15 356.32 349.17 C 354.09 352.73 350.44 355.90 345.99 355.67 C 340.60 356.22 335.38 352.29 333.77 347.25 C 332.60 342.55 333.32 337.37 336.61 333.67 C 338.51 332.40 340.58 331.41 342.75 330.67 Z" fill="#7e0603" opacity="1.00" stroke="#7e0603" stroke-width="0.25"/>
<path d="M 138.94 331.55 C 140.70 331.42 142.46 331.38 144.23 331.37 C 147.58 338.86 150.20 346.65 153.36 354.22 C 153.15 354.49 152.71 355.04 152.49 355.32 C 151.48 355.33 150.48 355.35 149.48 355.38 C 148.23 353.11 147.44 350.64 146.42 348.27 C 143.32 348.56 140.13 348.17 137.08 348.80 C 136.18 350.89 135.62 353.11 135.03 355.31 C 133.50 355.35 131.97 355.38 130.44 355.38 C 133.32 347.46 136.78 339.72 138.94 331.55 Z" fill="#7e0603" opacity="1.00" stroke="#7e0603" stroke-width="0.25"/>
<path d="M 157.39 331.33 C 158.77 331.35 160.15 331.38 161.53 331.42 C 161.54 338.13 161.48 344.83 161.51 351.54 C 165.12 351.57 168.73 351.43 172.34 351.60 C 172.31 352.83 172.28 354.06 172.25 355.30 C 167.30 355.40 162.34 355.26 157.39 355.43 C 157.26 347.40 157.36 339.36 157.39 331.33 Z" fill="#7e0603" opacity="1.00" stroke="#7e0603" stroke-width="0.25"/>
<path d="M 200.31 331.27 C 201.77 330.49 203.46 331.12 205.02 331.11 C 208.36 331.33 211.77 330.91 215.03 331.89 C 218.25 334.72 218.56 340.36 214.38 342.44 C 216.12 342.26 217.15 343.77 218.38 344.73 C 218.96 347.65 219.27 351.37 216.39 353.22 C 211.56 356.45 205.41 354.74 199.99 354.72 C 199.53 348.80 200.45 342.87 200.02 336.95 C 199.95 335.06 199.61 333.09 200.31 331.27 Z" fill="#7e0603" opacity="1.00" stroke="#7e0603" stroke-width="0.25"/>
<path d="M 229.93 331.62 C 231.68 331.50 233.44 331.46 235.20 331.48 C 235.72 333.31 236.42 335.08 237.24 336.80 C 239.62 342.92 242.82 348.86 243.91 355.39 C 242.89 355.36 240.85 355.31 239.83 355.28 C 238.99 353.02 238.08 350.80 237.18 348.58 C 234.07 348.57 230.97 348.57 227.87 348.71 C 226.99 350.94 226.03 353.14 225.10 355.36 C 223.90 355.37 222.70 355.37 221.50 355.38 C 223.43 349.19 225.78 343.15 228.21 337.15 C 228.92 335.35 229.51 333.51 229.93 331.62 Z" fill="#7e0603" opacity="1.00" stroke="#7e0603" stroke-width="0.25"/>
<path d="M 253.90 330.67 C 255.62 330.70 257.35 330.72 259.09 330.76 C 261.58 331.31 263.88 332.36 265.47 334.43 C 265.46 335.69 265.46 336.96 265.44 338.23 C 264.20 338.25 262.97 338.26 261.75 338.28 C 261.69 337.66 261.58 336.43 261.53 335.81 C 258.80 333.83 251.65 333.21 252.53 338.17 C 253.85 339.85 256.12 339.97 257.94 340.78 C 259.22 342.54 261.72 340.89 263.32 342.03 C 264.44 342.72 265.49 343.53 266.55 344.31 C 266.93 345.90 267.19 347.50 267.31 349.13 C 266.93 349.98 266.56 350.85 266.20 351.72 C 265.34 352.55 264.48 353.38 263.63 354.22 C 258.92 356.00 252.83 356.13 249.11 352.28 C 247.60 351.10 247.78 349.03 247.52 347.36 C 248.45 347.37 250.31 347.38 251.25 347.39 C 251.51 353.35 262.84 353.64 262.60 347.50 C 259.48 344.48 254.75 344.95 251.19 342.74 C 247.79 341.38 246.75 336.71 248.94 333.88 C 250.22 332.31 252.14 331.56 253.90 330.67 Z" fill="#7e0603" opacity="1.00" stroke="#7e0603" stroke-width="0.25"/>
<path d="M 297.76 331.48 C 299.33 331.38 300.90 331.33 302.48 331.32 C 302.43 339.34 302.42 347.35 302.43 355.36 C 301.41 355.40 299.39 355.46 298.38 355.49 C 297.14 347.58 298.29 339.47 297.76 331.48 Z" fill="#7e0603" opacity="1.00" stroke="#7e0603" stroke-width="0.25"/>
<path d="M 308.36 331.34 C 313.22 331.35 318.09 331.09 322.95 331.35 C 326.29 331.45 329.30 334.59 328.63 338.01 C 328.80 340.97 326.39 342.92 324.29 344.56 C 326.03 348.16 329.26 351.26 329.64 355.38 C 327.96 355.31 326.29 355.23 324.81 354.38 C 323.08 350.91 321.52 346.98 318.22 344.70 C 316.44 344.77 314.62 344.54 312.87 344.95 C 312.80 348.26 313.00 351.58 312.82 354.89 C 311.75 354.88 309.61 354.86 308.54 354.84 C 308.56 347.01 308.36 339.17 308.36 331.34 Z" fill="#7e0603" opacity="1.00" stroke="#7e0603" stroke-width="0.25"/>
<path d="M 362.19 331.35 C 363.60 331.38 365.02 331.42 366.44 331.46 C 366.48 334.43 366.48 337.41 366.52 340.38 C 370.20 340.31 373.87 340.26 377.55 340.37 C 377.63 337.35 377.60 334.32 377.56 331.30 C 379.10 331.34 380.66 331.40 382.21 331.48 C 382.29 336.66 381.84 341.83 382.13 347.00 C 382.17 349.83 382.52 352.74 381.59 355.48 C 380.60 355.43 378.63 355.32 377.65 355.26 C 377.52 351.55 377.57 347.84 377.55 344.14 C 373.89 344.28 370.23 344.27 366.58 344.11 C 366.48 347.37 366.58 350.63 366.47 353.89 C 366.41 355.88 363.62 355.15 362.37 355.42 C 361.93 347.41 362.29 339.37 362.19 331.35 Z" fill="#7e0603" opacity="1.00" stroke="#7e0603" stroke-width="0.25"/>
<path d="M 141.31 337.48 C 140.24 336.59 140.32 333.43 142.11 334.78 C 143.22 337.93 143.64 341.43 145.06 344.55 C 143.32 344.77 141.57 344.99 139.83 345.24 C 139.51 345.06 138.87 344.69 138.55 344.51 C 139.77 342.29 140.53 339.88 141.31 337.48 Z" fill="#ffffff" opacity="1.00" stroke="#ffffff" stroke-width="0.25"/>
<path d="M 343.58 334.50 C 345.17 334.16 346.80 334.50 348.41 334.55 C 352.93 337.41 353.66 343.57 351.87 348.22 C 349.21 353.51 339.84 353.00 338.40 347.02 C 336.84 342.58 338.18 335.49 343.58 334.50 Z" fill="#ffffff" opacity="1.00" stroke="#ffffff" stroke-width="0.25"/>
<path d="M 204.52 334.68 C 206.77 334.66 209.02 334.67 211.27 334.68 C 211.81 335.00 212.88 335.65 213.41 335.98 C 213.32 337.53 213.82 339.48 212.01 340.23 C 209.52 340.63 207.00 340.46 204.50 340.44 C 204.47 338.51 204.48 336.59 204.52 334.68 Z" fill="#ffffff" opacity="1.00" stroke="#ffffff" stroke-width="0.25"/>
<path d="M 313.45 334.75 C 316.89 334.85 320.42 334.42 323.75 335.50 C 323.60 337.51 324.51 340.43 322.04 341.37 C 319.12 341.61 316.20 341.41 313.28 341.39 C 313.17 339.17 313.14 336.95 313.45 334.75 Z" fill="#ffffff" opacity="1.00" stroke="#ffffff" stroke-width="0.25"/>
<path d="M 229.28 345.33 C 230.46 342.52 230.57 338.77 233.19 336.89 C 234.22 339.63 235.10 342.42 235.78 345.27 C 233.61 345.31 231.45 345.33 229.28 345.33 Z" fill="#ffffff" opacity="1.00" stroke="#ffffff" stroke-width="0.25"/>
<path d="M 180.69 343.74 C 184.29 343.65 187.89 343.71 191.49 343.78 C 191.59 345.02 191.69 346.26 191.79 347.51 C 188.19 348.43 184.16 348.90 180.67 347.39 C 180.68 346.17 180.69 344.95 180.69 343.74 Z" fill="#7e0603" opacity="1.00" stroke="#7e0603" stroke-width="0.25"/>
<path d="M 204.36 344.09 C 207.66 344.55 211.83 343.20 214.42 345.81 C 214.69 347.45 214.07 349.02 213.50 350.53 C 210.57 351.73 207.36 351.46 204.28 351.52 C 204.30 349.04 204.34 346.56 204.36 344.09 Z" fill="#ffffff" opacity="1.00" stroke="#ffffff" stroke-width="0.25"/>
</svg>